<svg id="Layer_1" data-name="Layer 1" xmlns="http://www.w3.org/2000/svg" viewBox="10 13 39 39"><defs><style>.cls-1{fill:#fff;}.cls-2{fill:#f37647;}</style></defs><rect class="cls-1" x="0.5" y="0.5" width="39" height="39" rx="12.5"/><circle class="cls-2" cx="29.21" cy="45.85" r="1.46"/><rect class="cls-2" x="26.84" y="17.2" width="4.74" height="1.55"/><path class="cls-2" d="M38.72,42.82v5.12a2,2,0,0,1-2,2h-15a2,2,0,0,1-2-2V17.06a2,2,0,0,1,2-2h15a2,2,0,0,1,2,2v3.5a10.81,10.81,0,0,1,2,.54v-4a4,4,0,0,0-4-4h-15a4,4,0,0,0-4,4V47.94a4,4,0,0,0,4,4h15a4,4,0,0,0,4-4V42.29A11.66,11.66,0,0,1,38.72,42.82Z"/><path class="cls-2" d="M47.25,31.62l-2.68-3.11a.12.12,0,0,0-.19,0l-2.25,3.38a.12.12,0,0,0,.11.19L43.65,32a5.93,5.93,0,0,1-.21,1.26,7,7,0,1,1-4.93-8.61,7.1,7.1,0,0,1,3,1.65l1.37-1.45A9.05,9.05,0,0,0,39,22.74a9,9,0,0,0-4.72,17.41,9.16,9.16,0,0,0,2.38.32,9,9,0,0,0,8.68-6.66,9.39,9.39,0,0,0,.29-1.9l1.5-.08A.13.13,0,0,0,47.25,31.62Z"/><path class="cls-2" d="M39.57,29.31V28H34.11v1.31h2a1.23,1.23,0,0,1,1,.61H34.11v1.3h3.08a1.23,1.23,0,0,1-1,.61H34.81A.66.66,0,0,0,34.35,33l3.41,3.37.92-.92-2.29-2.28a2.56,2.56,0,0,0,2.22-1.9h1v-1.3h-1a2.52,2.52,0,0,0-.25-.61Z"/></svg>